<svg width="334" height="108" viewBox="0 0 334 108" fill="none" xmlns="http://www.w3.org/2000/svg">
<g clip-path="url(#clip0_1857_27740)">
<path d="M307.402 -0.000503492H26.6127C25.5892 -0.000503492 24.5779 -0.000503492 23.5571 0.00489651C22.7026 0.0102965 21.8549 0.0259835 20.9922 0.0391865C19.118 0.0605214 17.2482 0.220022 15.399 0.516304C13.5525 0.819035 11.7638 1.38977 10.0934 2.2092C8.42508 3.03557 6.90068 4.10935 5.57551 5.39159C4.24339 6.67022 3.13296 8.14814 2.28693 9.76853C1.43856 11.3857 0.850296 13.1186 0.542459 14.9075C0.231696 16.6941 0.064471 18.5013 0.0422859 20.3129C0.016384 21.1407 0.0136487 21.9713 0 22.7992V85.2077C0.0136487 86.0461 0.016384 86.8582 0.0422859 87.6968C0.0644778 89.5083 0.231703 91.3155 0.542459 93.102C0.849446 94.8919 1.43774 96.6258 2.28693 98.2436C3.13258 99.8587 4.24316 101.331 5.57551 102.602C6.89565 103.89 8.42104 104.965 10.0934 105.785C11.7638 106.606 13.5523 107.18 15.399 107.488C17.2485 107.782 19.1181 107.941 20.9922 107.965C21.8549 107.984 22.7026 107.994 23.5571 107.994C24.5779 108 25.5892 107.999 26.6127 107.999H307.402C308.405 107.999 309.425 108 310.428 107.994C311.278 107.994 312.151 107.984 313.001 107.965C314.872 107.943 316.738 107.783 318.583 107.488C320.436 107.178 322.231 106.604 323.909 105.785C325.58 104.964 327.104 103.89 328.423 102.602C329.752 101.326 330.865 99.8548 331.721 98.2436C332.564 96.6246 333.147 94.8908 333.449 93.102C333.761 91.3152 333.934 89.5085 333.967 87.6968C333.978 86.8582 333.978 86.0461 333.978 85.2077C334 84.2268 334 83.2513 334 82.2545V25.747C334 24.7583 334 23.7774 333.978 22.7992C333.978 21.9713 333.978 21.1407 333.967 20.3128C333.934 18.501 333.761 16.6942 333.449 14.9074C333.146 13.1196 332.563 11.3868 331.721 9.76842C329.998 6.52053 327.266 3.87677 323.909 2.20896C322.231 1.39153 320.436 0.820946 318.583 0.516061C316.738 0.218474 314.872 0.0589175 313.001 0.0388085C312.151 0.0256325 311.278 0.00981051 310.428 0.00454551C309.425 -0.000854492 308.405 -0.000854492 307.402 -0.000854492V-0.000503492Z" fill="#A6A6A6"/>
<path d="M23.5713 105.638C22.7209 105.638 21.891 105.627 21.0473 105.609C19.2994 105.587 17.5557 105.44 15.8303 105.168C14.2214 104.9 12.6629 104.402 11.2061 103.689C9.7626 102.982 8.44604 102.056 7.30683 100.944C6.15113 99.8461 5.18895 98.5724 4.45844 97.1737C3.71987 95.7659 3.20874 94.2569 2.94284 92.6993C2.6557 91.0256 2.50035 89.3332 2.47812 87.6368C2.46042 87.0673 2.43726 85.1714 2.43726 85.1714V22.7999C2.43726 22.7999 2.46193 20.9331 2.47826 20.3846C2.49954 18.6909 2.65399 17.0011 2.94028 15.33C3.20666 13.7681 3.71819 12.2548 4.45715 10.8424C5.18499 9.44462 6.14182 8.16999 7.29056 7.06791C8.43801 5.95535 9.75877 5.0238 11.2047 4.30724C12.6582 3.59682 14.2138 3.10175 15.8194 2.8386C17.5504 2.56473 19.3003 2.41666 21.0542 2.39564L23.5727 2.36267H310.415L312.963 2.39696C314.701 2.41694 316.435 2.56369 318.15 2.83595C319.772 3.1024 321.344 3.60093 322.814 4.31515C325.711 5.75923 328.068 8.04391 329.555 10.849C330.282 12.2516 330.786 13.7526 331.049 15.301C331.338 16.9858 331.5 18.6889 331.534 20.3965C331.542 21.1612 331.542 21.9825 331.542 22.7999C331.564 23.8124 331.564 24.7761 331.564 25.7477V82.2551C331.564 83.236 331.564 84.1932 331.542 85.1582C331.542 86.0362 331.542 86.8405 331.531 87.6684C331.498 89.3455 331.339 91.0182 331.054 92.6728C330.793 94.2417 330.285 95.7625 329.547 97.1818C328.811 98.5653 327.854 99.828 326.712 100.923C325.572 102.04 324.253 102.973 322.806 103.684C321.34 104.402 319.771 104.903 318.15 105.168C316.425 105.441 314.681 105.588 312.933 105.609C312.116 105.627 311.26 105.638 310.428 105.638L307.403 105.643L23.5713 105.638Z" fill="black"/>
<path d="M69.1333 54.8115C69.1633 52.5579 69.7821 50.3483 70.9321 48.3882C72.0821 46.4282 73.726 44.7813 75.7108 43.601C74.4499 41.859 72.7865 40.4255 70.8528 39.4142C68.919 38.4029 66.7681 37.8417 64.5709 37.7752C59.8838 37.2993 55.34 40.4883 52.9516 40.4883C50.517 40.4883 46.8396 37.8225 42.8797 37.9013C40.3184 37.9813 37.8221 38.7018 35.6342 39.9926C33.4463 41.2834 31.6413 43.1003 30.3952 45.2665C24.9971 54.3073 29.0236 67.5941 34.1945 74.902C36.7816 78.4804 39.8052 82.4776 43.7615 82.3359C47.633 82.1805 49.0789 79.9478 53.7521 79.9478C58.382 79.9478 59.7385 82.3359 63.7751 82.2457C67.9294 82.1805 70.5468 78.6514 73.0432 75.0391C74.902 72.4893 76.3324 69.6712 77.2813 66.6893C74.8678 65.7018 72.8081 64.0489 71.3592 61.9367C69.9102 59.8245 69.1361 57.3465 69.1333 54.8115V54.8115Z" fill="white"/>
<path d="M61.5091 32.9693C63.7742 30.3389 64.8901 26.958 64.6199 23.5446C61.1594 23.8962 57.9628 25.4961 55.6671 28.0256C54.5447 29.2613 53.685 30.6988 53.1372 32.2561C52.5895 33.8134 52.3644 35.4598 52.4748 37.1013C54.2057 37.1186 55.9181 36.7556 57.483 36.0399C59.0479 35.3242 60.4245 34.2743 61.5091 32.9693Z" fill="white"/>
<path d="M118.071 73.2769H104.859L101.686 82.3393H96.0906L108.604 48.8107H114.418L126.932 82.3393H121.241L118.071 73.2769ZM106.228 69.0951H116.7L111.537 54.3874H111.393L106.228 69.0951Z" fill="white"/>
<path d="M153.958 70.118C153.958 77.7144 149.755 82.5949 143.412 82.5949C141.805 82.6762 140.207 82.3182 138.801 81.5618C137.395 80.8054 136.237 79.6813 135.461 78.3181H135.341V90.4259H130.154V57.8941H135.175V61.9599H135.27C136.082 60.6033 137.259 59.485 138.676 58.724C140.093 57.963 141.697 57.5878 143.316 57.6384C149.73 57.6384 153.958 62.5427 153.958 70.118ZM148.626 70.118C148.626 65.1689 145.982 61.9151 141.948 61.9151C137.985 61.9151 135.319 65.2374 135.319 70.118C135.319 75.0434 137.985 78.3419 141.948 78.3419C145.982 78.3419 148.626 75.1119 148.626 70.118Z" fill="white"/>
<path d="M181.771 70.1179C181.771 77.7143 177.568 82.5949 171.225 82.5949C169.619 82.6762 168.021 82.3182 166.614 81.5618C165.208 80.8054 164.051 79.6813 163.274 78.3181H163.154V90.4259H157.967V57.8941H162.988V61.9599H163.083C163.896 60.6033 165.073 59.485 166.49 58.724C167.906 57.963 169.51 57.5878 171.13 57.6384C177.544 57.6384 181.771 62.5426 181.771 70.1179ZM176.44 70.1179C176.44 65.1688 173.796 61.9151 169.762 61.9151C165.798 61.9151 163.133 65.2374 163.133 70.1179C163.133 75.0433 165.798 78.3419 169.762 78.3419C173.796 78.3419 176.44 75.1119 176.44 70.1179H176.44Z" fill="white"/>
<path d="M200.154 72.9973C200.538 76.3222 203.877 78.5053 208.44 78.5053C212.812 78.5053 215.957 76.3221 215.957 73.3241C215.957 70.7217 214.06 69.1634 209.568 68.0955L205.076 67.0487C198.712 65.5616 195.757 62.6823 195.757 58.01C195.757 52.2251 200.969 48.2515 208.369 48.2515C215.693 48.2515 220.714 52.2251 220.883 58.01H215.647C215.333 54.664 212.474 52.6443 208.295 52.6443C204.117 52.6443 201.257 54.6878 201.257 57.662C201.257 60.0324 203.084 61.4272 207.551 62.495L211.37 63.402C218.481 65.0289 221.436 67.7922 221.436 72.6965C221.436 78.9692 216.271 82.8979 208.055 82.8979C200.369 82.8979 195.179 79.0615 194.844 72.997L200.154 72.9973Z" fill="white"/>
<path d="M232.63 52.1091V57.894H237.435V61.8676H232.63V75.3438C232.63 77.4374 233.592 78.413 235.705 78.413C236.275 78.4034 236.845 78.3646 237.411 78.2969V82.2467C236.461 82.4183 235.496 82.4961 234.53 82.4787C229.414 82.4787 227.418 80.6198 227.418 75.879V61.8676H223.744V57.894H227.418V52.1091H232.63Z" fill="white"/>
<path d="M240.22 70.1181C240.22 62.4268 244.903 57.5937 252.205 57.5937C259.532 57.5937 264.193 62.4267 264.193 70.1181C264.193 77.8305 259.556 82.6425 252.205 82.6425C244.856 82.6425 240.22 77.8305 240.22 70.1181ZM258.908 70.1181C258.908 64.842 256.408 61.7281 252.205 61.7281C248.002 61.7281 245.505 64.8658 245.505 70.1181C245.505 75.4153 248.002 78.5055 252.205 78.5055C256.408 78.5055 258.907 75.4153 258.907 70.1181H258.908Z" fill="white"/>
<path d="M268.469 57.8943H273.416V62.055H273.536C273.871 60.7556 274.658 59.6072 275.765 58.8029C276.872 57.9986 278.231 57.5874 279.615 57.6385C280.213 57.6365 280.809 57.6993 281.392 57.8257V62.5191C280.637 62.296 279.85 62.1936 279.061 62.2159C278.308 62.1863 277.557 62.3148 276.859 62.5926C276.162 62.8704 275.535 63.2909 275.021 63.8252C274.508 64.3595 274.12 64.995 273.884 65.688C273.649 66.381 273.571 67.1151 273.656 67.84V82.3393H268.469L268.469 57.8943Z" fill="white"/>
<path d="M305.306 75.1595C304.608 79.5971 300.141 82.6425 294.425 82.6425C287.074 82.6425 282.511 77.8779 282.511 70.2341C282.511 62.5665 287.098 57.5937 294.207 57.5937C301.199 57.5937 305.595 62.2396 305.595 69.6514V71.3705H287.747V71.6738C287.665 72.5734 287.781 73.4797 288.089 74.3325C288.396 75.1852 288.888 75.9649 289.531 76.6198C290.174 77.2747 290.953 77.7898 291.818 78.1308C292.682 78.4718 293.612 78.631 294.545 78.5978C295.771 78.7089 297.001 78.4343 298.052 77.8148C299.104 77.1953 299.92 76.264 300.381 75.1595L305.306 75.1595ZM287.772 67.8637H300.405C300.452 67.0548 300.325 66.2453 300.033 65.486C299.741 64.7268 299.29 64.0341 298.708 63.4516C298.126 62.869 297.425 62.4091 296.651 62.1007C295.876 61.7923 295.044 61.6421 294.207 61.6595C293.362 61.6546 292.525 61.8116 291.743 62.1214C290.962 62.4312 290.251 62.8877 289.653 63.4645C289.055 64.0413 288.58 64.7271 288.258 65.4821C287.935 66.2372 287.769 67.0466 287.772 67.8637V67.8637Z" fill="white"/>
<path d="M105.579 23.5736C106.667 23.4982 107.758 23.6571 108.774 24.0389C109.79 24.4208 110.706 25.0161 111.456 25.7819C112.206 26.5477 112.77 27.4649 113.109 28.4673C113.448 29.4697 113.553 30.5324 113.416 31.5787C113.416 36.7256 110.54 39.6841 105.579 39.6841H99.5635V23.5736H105.579ZM102.15 37.4057H105.29C106.067 37.4507 106.845 37.3274 107.567 37.045C108.288 36.7625 108.936 36.3279 109.462 35.7729C109.988 35.2179 110.379 34.5564 110.608 33.8365C110.836 33.1166 110.896 32.3565 110.783 31.6115C110.888 30.8695 110.822 30.1141 110.59 29.3995C110.358 28.6849 109.966 28.0288 109.441 27.4782C108.916 26.9276 108.271 26.4961 107.554 26.2147C106.836 25.9332 106.063 25.8088 105.29 25.8503H102.15V37.4057Z" fill="white"/>
<path d="M116.337 33.5998C116.258 32.8008 116.353 31.9947 116.615 31.2331C116.876 30.4715 117.3 29.7713 117.858 29.1773C118.416 28.5834 119.096 28.1088 119.855 27.7841C120.614 27.4593 121.434 27.2916 122.264 27.2916C123.094 27.2916 123.915 27.4593 124.673 27.7841C125.432 28.1088 126.112 28.5834 126.67 29.1773C127.228 29.7713 127.652 30.4715 127.914 31.2331C128.176 31.9947 128.27 32.8008 128.191 33.5998C128.272 34.3996 128.178 35.2068 127.917 35.9697C127.656 36.7325 127.233 37.434 126.674 38.0291C126.116 38.6242 125.436 39.0998 124.676 39.4252C123.916 39.7507 123.095 39.9188 122.264 39.9188C121.434 39.9188 120.612 39.7507 119.852 39.4252C119.093 39.0998 118.412 38.6242 117.854 38.0291C117.296 37.434 116.872 36.7325 116.611 35.9697C116.35 35.2068 116.257 34.3996 116.337 33.5998V33.5998ZM125.64 33.5998C125.64 30.9644 124.416 29.4232 122.268 29.4232C120.112 29.4232 118.899 30.9644 118.899 33.5998C118.899 36.2563 120.112 37.7856 122.268 37.7856C124.416 37.7856 125.64 36.2457 125.64 33.5998H125.64Z" fill="white"/>
<path d="M143.95 39.6839H141.377L138.779 30.7296H138.583L135.996 39.6839H133.448L129.983 27.526H132.499L134.75 36.8032H134.936L137.52 27.526H139.899L142.483 36.8032H142.68L144.92 27.526H147.401L143.95 39.6839Z" fill="white"/>
<path d="M150.314 27.5262H152.702V29.4576H152.887C153.202 28.7639 153.732 28.1824 154.404 27.7941C155.077 27.4058 155.857 27.2301 156.638 27.2915C157.249 27.247 157.864 27.3362 158.435 27.5525C159.006 27.7687 159.519 28.1065 159.937 28.5408C160.355 28.9751 160.666 29.4947 160.848 30.0612C161.03 30.6278 161.078 31.2266 160.988 31.8135V39.684H158.508V32.416C158.508 30.4622 157.63 29.4906 155.796 29.4906C155.38 29.4718 154.966 29.5402 154.581 29.6909C154.195 29.8417 153.848 30.0712 153.563 30.3639C153.278 30.6565 153.062 31.0053 152.929 31.3864C152.797 31.7674 152.751 32.1717 152.795 32.5715V39.6841H150.314L150.314 27.5262Z" fill="white"/>
<path d="M164.939 22.78H167.42V39.684H164.939V22.78Z" fill="white"/>
<path d="M170.869 33.5996C170.79 32.8006 170.885 31.9944 171.147 31.2328C171.409 30.4711 171.832 29.7709 172.39 29.1769C172.948 28.583 173.629 28.1084 174.388 27.7836C175.146 27.4589 175.967 27.2911 176.797 27.2911C177.627 27.2911 178.447 27.4589 179.206 27.7836C179.965 28.1084 180.645 28.583 181.203 29.1769C181.761 29.7709 182.185 30.4711 182.447 31.2328C182.709 31.9944 182.804 32.8006 182.725 33.5996C182.805 34.3994 182.712 35.2067 182.45 35.9695C182.189 36.7323 181.766 37.4338 181.207 38.0289C180.649 38.624 179.968 39.0995 179.209 39.425C178.449 39.7504 177.628 39.9185 176.797 39.9185C175.966 39.9185 175.145 39.7504 174.385 39.425C173.625 39.0995 172.945 38.624 172.386 38.0289C171.828 37.4338 171.405 36.7323 171.143 35.9695C170.882 35.2067 170.789 34.3994 170.869 33.5996V33.5996ZM180.172 33.5996C180.172 30.9642 178.948 29.423 176.8 29.423C174.644 29.423 173.431 30.9642 173.431 33.5996C173.431 36.2561 174.644 37.7854 176.8 37.7854C178.948 37.7854 180.172 36.2455 180.172 33.5996H180.172Z" fill="white"/>
<path d="M185.335 36.2458C185.335 34.0574 187.02 32.7957 190.01 32.6164L193.414 32.4266V31.3772C193.414 30.0931 192.537 29.368 190.841 29.368C189.457 29.368 188.497 29.8597 188.222 30.7193H185.82C186.074 28.631 188.105 27.2916 190.956 27.2916C194.107 27.2916 195.884 28.809 195.884 31.3772V39.6841H193.496V37.9755H193.3C192.901 38.5884 192.342 39.0881 191.679 39.4234C191.016 39.7588 190.272 39.9179 189.525 39.8844C188.997 39.9375 188.464 39.8831 187.959 39.7246C187.455 39.5661 186.99 39.3071 186.595 38.9643C186.201 38.6215 185.885 38.2025 185.668 37.7342C185.45 37.266 185.337 36.759 185.335 36.2458V36.2458ZM193.414 35.207V34.1905L190.345 34.3804C188.614 34.4924 187.829 35.0619 187.829 36.1338C187.829 37.228 188.81 37.8648 190.16 37.8648C190.555 37.9035 190.955 37.8649 191.334 37.7512C191.714 37.6376 192.066 37.4512 192.37 37.2033C192.673 36.9553 192.922 36.6508 193.102 36.3078C193.281 35.9649 193.387 35.5905 193.414 35.207V35.207Z" fill="white"/>
<path d="M199.143 33.5998C199.143 29.7581 201.185 27.3244 204.36 27.3244C205.146 27.2894 205.925 27.4714 206.608 27.8491C207.29 28.2268 207.848 28.7846 208.215 29.4574H208.4V22.78H210.88V39.684H208.503V37.7631H208.307C207.912 38.4313 207.335 38.9822 206.64 39.3561C205.944 39.73 205.156 39.9127 204.36 39.8843C201.163 39.8845 199.143 37.4507 199.143 33.5998ZM201.706 33.5998C201.706 36.1785 202.962 37.7302 205.064 37.7302C207.154 37.7302 208.446 36.1561 208.446 33.6103C208.446 31.0764 207.141 29.4799 205.064 29.4799C202.976 29.4799 201.705 31.0422 201.705 33.5998H201.706Z" fill="white"/>
<path d="M221.143 33.5998C221.064 32.8008 221.158 31.9947 221.42 31.2331C221.682 30.4715 222.106 29.7713 222.664 29.1773C223.222 28.5834 223.902 28.1088 224.661 27.7841C225.42 27.4593 226.24 27.2916 227.07 27.2916C227.9 27.2916 228.72 27.4593 229.479 27.7841C230.238 28.1088 230.918 28.5834 231.476 29.1773C232.034 29.7713 232.458 30.4715 232.72 31.2331C232.981 31.9947 233.076 32.8008 232.997 33.5998C233.077 34.3996 232.984 35.2068 232.723 35.9697C232.462 36.7325 232.038 37.434 231.48 38.0291C230.922 38.6242 230.241 39.0998 229.482 39.4252C228.722 39.7507 227.901 39.9188 227.07 39.9188C226.239 39.9188 225.418 39.7507 224.658 39.4252C223.899 39.0998 223.218 38.6242 222.66 38.0291C222.101 37.434 221.678 36.7325 221.417 35.9697C221.156 35.2068 221.062 34.3996 221.143 33.5998V33.5998ZM230.446 33.5998C230.446 30.9644 229.222 29.4232 227.074 29.4232C224.918 29.4232 223.705 30.9644 223.705 33.5998C223.705 36.2563 224.918 37.7856 227.074 37.7856C229.222 37.7856 230.446 36.2457 230.446 33.5998Z" fill="white"/>
<path d="M236.326 27.5262H238.714V29.4576H238.899C239.214 28.7639 239.744 28.1824 240.416 27.7941C241.089 27.4058 241.869 27.2301 242.65 27.2915C243.261 27.247 243.875 27.3362 244.447 27.5525C245.018 27.7687 245.531 28.1065 245.949 28.5408C246.367 28.9751 246.678 29.4947 246.86 30.0612C247.042 30.6278 247.09 31.2266 247 31.8135V39.684H244.52V32.416C244.52 30.4622 243.642 29.4906 241.808 29.4906C241.392 29.4718 240.978 29.5402 240.593 29.6909C240.207 29.8417 239.86 30.0712 239.575 30.3639C239.29 30.6565 239.074 31.0053 238.941 31.3864C238.809 31.7674 238.763 32.1717 238.807 32.5715V39.6841H236.326V27.5262Z" fill="white"/>
<path d="M261.015 24.499V27.5813H263.738V29.6023H261.015V35.854C261.015 37.1275 261.557 37.6852 262.792 37.6852C263.108 37.6842 263.424 37.6657 263.738 37.6298V39.6284C263.293 39.7055 262.841 39.7465 262.389 39.751C259.63 39.751 258.532 38.8124 258.532 36.4683V29.6022H256.537V27.5812H258.532V24.499H261.015Z" fill="white"/>
<path d="M267.125 22.78H269.584V29.4799H269.78C270.11 28.7797 270.655 28.1949 271.341 27.8052C272.027 27.4154 272.82 27.2397 273.613 27.302C274.221 27.2699 274.829 27.3682 275.394 27.5897C275.958 27.8112 276.465 28.1505 276.879 28.5834C277.292 29.0164 277.602 29.5322 277.785 30.0942C277.969 30.6561 278.022 31.2504 277.941 31.8345V39.684H275.458V32.4264C275.458 30.4844 274.523 29.5009 272.771 29.5009C272.344 29.4671 271.915 29.5238 271.514 29.6671C271.113 29.8103 270.749 30.0366 270.447 30.3302C270.146 30.6238 269.914 30.9776 269.769 31.3668C269.624 31.7559 269.568 32.1711 269.606 32.5833V39.6839H267.126L267.125 22.78Z" fill="white"/>
<path d="M292.405 36.4012C292.068 37.5124 291.338 38.4735 290.342 39.1165C289.346 39.7595 288.149 40.0434 286.959 39.9186C286.131 39.9397 285.308 39.7863 284.547 39.469C283.787 39.1516 283.107 38.678 282.554 38.0809C282.002 37.4839 281.59 36.7777 281.348 36.0113C281.106 35.245 281.04 34.4369 281.153 33.6432C281.043 32.847 281.111 32.0372 281.352 31.2686C281.593 30.5 282.003 29.7905 282.552 29.1882C283.102 28.5859 283.778 28.1048 284.537 27.7776C285.295 27.4503 286.117 27.2845 286.948 27.2913C290.445 27.2913 292.555 29.6025 292.555 33.4203V34.2576H283.68V34.392C283.641 34.8382 283.699 35.2873 283.85 35.7105C284.001 36.1337 284.242 36.5218 284.557 36.8497C284.872 37.1776 285.255 37.4382 285.68 37.6148C286.105 37.7914 286.564 37.88 287.027 37.875C287.62 37.9439 288.221 37.8406 288.754 37.5781C289.286 37.3157 289.726 36.906 290.017 36.4011L292.405 36.4012ZM283.68 32.483H290.028C290.059 32.075 290.002 31.6651 289.86 31.2798C289.717 30.8945 289.493 30.5422 289.202 30.2455C288.911 29.9489 288.558 29.7146 288.168 29.5575C287.777 29.4004 287.357 29.3241 286.934 29.3335C286.505 29.3283 286.079 29.4062 285.682 29.5626C285.285 29.7191 284.924 29.9509 284.62 30.2444C284.317 30.538 284.078 30.8873 283.916 31.2717C283.754 31.6562 283.674 32.0681 283.68 32.483H283.68Z" fill="white"/>
</g>
<defs>
<clipPath id="clip0_1857_27740">
<rect width="334" height="108" fill="white"/>
</clipPath>
</defs>
</svg>
