<svg width="80" height="80" viewBox="0 0 80 80" fill="none" xmlns="http://www.w3.org/2000/svg">
<path d="M28.4001 46.153C24.9335 46.153 22.1068 43.003 22.1068 39.1497C22.1068 35.2964 24.8635 32.143 28.4035 32.143C31.9035 32.143 34.7701 35.293 34.7001 39.1497C34.7001 43.003 31.9035 46.153 28.4001 46.153ZM51.6468 46.1497C48.1801 46.1497 45.3468 42.9997 45.3468 39.1464C45.3468 35.293 48.1101 32.1397 51.6468 32.1397C55.1468 32.1397 58.0135 35.2897 57.9468 39.1464C57.9468 42.9997 55.1834 46.1497 51.6468 46.1497ZM33.7501 14.403L32.7235 12.5264L30.6101 12.8797C25.8211 13.6801 21.1601 15.1149 16.7501 17.1464L15.9901 17.4964L15.5168 18.1964C6.80679 31.0397 4.41678 43.6897 5.60012 56.113L5.73012 57.4697L6.83012 58.2697C11.9538 62.0298 17.6768 64.8959 23.7568 66.7464L26.3901 67.553L30.1001 58.4997C36.4668 60.073 43.5334 60.073 49.8968 58.4997L53.5868 67.5564L56.2201 66.7497C62.3053 64.9038 68.0316 62.035 73.1534 58.2664L74.2435 57.473L74.3768 56.133C75.8301 41.733 72.0534 29.1897 64.5168 18.1864L64.0434 17.493L63.2835 17.1464C58.8749 15.1234 54.2194 13.6889 49.4368 12.8797L47.3768 12.5364L46.3301 14.343C46.0368 14.843 45.7401 15.4097 45.4534 15.9864C41.8374 15.6157 38.1929 15.6157 34.5768 15.9864C34.2934 15.4197 34.0101 14.873 33.7501 14.403ZM22.3835 55.3664C23.0401 55.7464 23.7334 56.1197 24.4168 56.4597L22.9201 60.113C18.8718 58.6381 15.0311 56.646 11.4935 54.1864C10.7435 43.7264 12.8701 33.1697 20.0401 22.2864C23.0664 20.9548 26.2204 19.9351 29.4535 19.243C29.6535 19.6597 29.8401 20.0697 29.9935 20.4297L30.9035 22.573L33.2101 22.2364C37.7304 21.5738 42.3232 21.5738 46.8435 22.2364L49.1434 22.5697L50.0501 20.4297C50.2068 20.0564 50.3901 19.6497 50.5835 19.243C53.8401 19.943 56.9935 20.9764 60.0101 22.293C66.2601 31.693 69.4134 42.1797 68.4968 54.183C64.9573 56.6443 61.1143 58.6375 57.0634 60.113L55.5801 56.463C56.2668 56.123 56.9601 55.7497 57.6235 55.3664C59.2568 54.4264 61.0134 53.253 62.1334 52.133L57.8668 47.8664C57.3235 48.413 56.1234 49.2664 54.6101 50.1397C53.1301 50.993 51.6601 51.683 50.7201 51.993C44.0434 54.203 35.9601 54.203 29.2801 51.993C28.3435 51.683 26.8735 50.993 25.3935 50.1397C23.8801 49.2697 22.6801 48.413 22.1335 47.8664L17.8668 52.133C18.9901 53.253 20.7501 54.4264 22.3835 55.3664Z" fill="black"/>
</svg>
