<svg width="231" height="73" viewBox="0 0 231 73" fill="none" xmlns="http://www.w3.org/2000/svg">
<path d="M222.37 72.2H9.11702C4.4276 72.2 0.586914 68.1721 0.586914 63.254V9.57771C0.586914 4.65963 4.4276 0.631671 9.11702 0.631671H222.37C227.059 0.631671 230.9 4.65963 230.9 9.57771V63.254C230.9 68.1721 227.059 72.2 222.37 72.2Z" fill="black"/>
<path d="M222.37 2.06527C226.319 2.06527 229.533 5.4357 229.533 9.57771V63.254C229.533 67.396 226.319 70.7664 222.37 70.7664H9.11702C5.16758 70.7664 1.95386 67.396 1.95386 63.254V9.57771C1.95386 5.4357 5.16758 2.06527 9.11702 2.06527H222.37ZM222.37 0.631671H9.11702C4.4276 0.631671 0.586914 4.65963 0.586914 9.57771V63.254C0.586914 68.1721 4.4276 72.2 9.11702 72.2H222.37C227.059 72.2 230.9 68.1721 230.9 63.254V9.57771C230.9 4.65963 227.059 0.631671 222.37 0.631671Z" fill="#A6A6A6"/>
<path d="M18.3893 14.1201C17.8882 14.6703 17.5981 15.5269 17.5981 16.6362V56.2045C17.5981 57.3138 17.8882 58.1704 18.3893 58.7206L18.513 58.8414L39.6549 36.6775V36.1542L18.513 13.9904L18.3893 14.1201Z" fill="url(#paint0_linear_1869_1361)"/>
<path d="M46.6943 44.0692L39.6548 36.6775V36.1541L46.7028 28.7625L46.8606 28.8586L55.2073 33.8394C57.5893 35.2528 57.5893 37.5788 55.2073 39.0012L46.8606 43.973L46.6943 44.0692V44.0692Z" fill="url(#paint1_linear_1869_1361)"/>
<path d="M46.8605 43.973L39.6547 36.4159L18.3892 58.7206C19.1803 59.5928 20.4705 59.6979 21.9377 58.8257L46.8605 43.973" fill="url(#paint2_linear_1869_1361)"/>
<path d="M46.8605 28.8587L21.9377 14.006C20.4705 13.1427 19.1803 13.2478 18.3892 14.1201L39.6547 36.4158L46.8605 28.8587Z" fill="url(#paint3_linear_1869_1361)"/>
<path d="M81.4823 18.9599C81.4823 20.4539 81.0558 21.6504 80.2156 22.5428C79.2495 23.6007 77.9913 24.1329 76.4495 24.1329C74.9759 24.1329 73.7177 23.5917 72.6856 22.5249C71.6513 21.4424 71.1353 20.1139 71.1353 18.5238C71.1353 16.9336 71.6513 15.6051 72.6856 14.5316C73.7177 13.4558 74.9759 12.9146 76.4495 12.9146C77.1831 12.9146 77.8826 13.0734 78.55 13.3686C79.2154 13.6661 79.7571 14.0687 80.1494 14.5652L79.258 15.509C78.5735 14.6613 77.6416 14.2431 76.4495 14.2431C75.3747 14.2431 74.4428 14.6367 73.6516 15.4307C72.869 16.2269 72.4766 17.2579 72.4766 18.5238C72.4766 19.7896 72.869 20.8296 73.6516 21.6258C74.4428 22.4108 75.3747 22.8134 76.4495 22.8134C77.5904 22.8134 78.5501 22.4108 79.3071 21.6169C79.8061 21.0913 80.0897 20.3667 80.1644 19.4407H76.4495V18.148H81.4055C81.4652 18.4276 81.4823 18.6982 81.4823 18.9599V18.9599Z" fill="white" stroke="white" stroke-width="0.16" stroke-miterlimit="10"/>
<path d="M89.3448 14.4779H84.6895V17.8774H88.8863V19.1701H84.6895V22.5696H89.3448V23.8869H83.3716V13.1606H89.3448V14.4779Z" fill="white" stroke="white" stroke-width="0.16" stroke-miterlimit="10"/>
<path d="M94.8936 23.8869H93.5757V14.4779H90.7202V13.1606H97.7512V14.4779H94.8936V23.8869V23.8869Z" fill="white" stroke="white" stroke-width="0.16" stroke-miterlimit="10"/>
<path d="M102.839 23.8869V13.1606H104.155V23.8869H102.839Z" fill="white" stroke="white" stroke-width="0.16" stroke-miterlimit="10"/>
<path d="M109.988 23.8869H108.681V14.4779H105.814V13.1606H112.854V14.4779H109.988V23.8869Z" fill="white" stroke="white" stroke-width="0.16" stroke-miterlimit="10"/>
<path d="M126.165 22.507C125.156 23.5917 123.907 24.1329 122.416 24.1329C120.917 24.1329 119.667 23.5917 118.659 22.507C117.652 21.4245 117.151 20.096 117.151 18.5238C117.151 16.9515 117.652 15.623 118.659 14.5406C119.667 13.4558 120.917 12.9146 122.416 12.9146C123.898 12.9146 125.148 13.4558 126.157 14.5495C127.172 15.6409 127.673 16.9605 127.673 18.5238C127.673 20.096 127.172 21.4245 126.165 22.507ZM119.633 21.6079C120.392 22.4108 121.316 22.8134 122.416 22.8134C123.508 22.8134 124.44 22.4108 125.191 21.6079C125.948 20.805 126.331 19.774 126.331 18.5238C126.331 17.2736 125.948 16.2425 125.191 15.4396C124.44 14.6367 123.508 14.2342 122.416 14.2342C121.316 14.2342 120.392 14.6367 119.633 15.4396C118.876 16.2425 118.492 17.2736 118.492 18.5238C118.492 19.774 118.876 20.805 119.633 21.6079V21.6079Z" fill="white" stroke="white" stroke-width="0.16" stroke-miterlimit="10"/>
<path d="M129.521 23.8869V13.1606H131.121L136.094 21.5028H136.152L136.094 19.4407V13.1606H137.41V23.8869H136.036L130.829 15.1332H130.771L130.829 17.2042V23.8869H129.521V23.8869Z" fill="white" stroke="white" stroke-width="0.16" stroke-miterlimit="10"/>
<path d="M116.827 39.5515C112.82 39.5515 109.546 42.7497 109.546 47.1623C109.546 51.5392 112.82 54.7709 116.827 54.7709C120.842 54.7709 124.116 51.5392 124.116 47.1623C124.116 42.7497 120.842 39.5515 116.827 39.5515ZM116.827 51.774C114.628 51.774 112.737 49.8707 112.737 47.1623C112.737 44.4181 114.628 42.5484 116.827 42.5484C119.025 42.5484 120.925 44.4181 120.925 47.1623C120.925 49.8707 119.025 51.774 116.827 51.774V51.774ZM100.941 39.5515C96.926 39.5515 93.6611 42.7497 93.6611 47.1623C93.6611 51.5392 96.926 54.7709 100.941 54.7709C104.955 54.7709 108.222 51.5392 108.222 47.1623C108.222 42.7497 104.955 39.5515 100.941 39.5515ZM100.941 51.774C98.7407 51.774 96.8428 49.8707 96.8428 47.1623C96.8428 44.4181 98.7407 42.5484 100.941 42.5484C103.14 42.5484 105.032 44.4181 105.032 47.1623C105.032 49.8707 103.14 51.774 100.941 51.774ZM82.0388 41.8841V45.1181H89.4024C89.187 46.9252 88.6112 48.2537 87.7284 49.1796C86.6536 50.2979 84.9795 51.5392 82.0388 51.5392C77.5072 51.5392 73.9586 47.7035 73.9586 42.951C73.9586 38.1984 77.5072 34.3628 82.0388 34.3628C84.4891 34.3628 86.2719 35.367 87.5876 36.6686L89.7607 34.3896C87.9203 32.5467 85.4722 31.131 82.0388 31.131C75.8246 31.131 70.6021 36.4338 70.6021 42.951C70.6021 49.4682 75.8246 54.7709 82.0388 54.7709C85.3975 54.7709 87.9203 53.6169 89.9035 51.4519C91.9358 49.3205 92.5692 46.3236 92.5692 43.9037C92.5692 43.1522 92.5095 42.4612 92.4029 41.8841H82.0388ZM159.334 44.3913C158.735 42.6893 156.886 39.5515 153.12 39.5515C149.388 39.5515 146.281 42.6356 146.281 47.1623C146.281 51.4251 149.356 54.7709 153.478 54.7709C156.812 54.7709 158.735 52.6395 159.526 51.3983L157.053 49.6694C156.227 50.9353 155.103 51.774 153.478 51.774C151.864 51.774 150.706 50.9979 149.964 49.4682L159.669 45.2568L159.334 44.3913V44.3913ZM149.439 46.9252C149.356 43.9909 151.612 42.488 153.229 42.488C154.496 42.488 155.57 43.1522 155.929 44.1028L149.439 46.9252V46.9252ZM141.551 54.308H144.741V31.9429H141.551V54.308ZM136.327 41.2467H136.22C135.503 40.3566 134.136 39.5515 132.405 39.5515C128.771 39.5515 125.448 42.8973 125.448 47.1869C125.448 51.4519 128.771 54.7709 132.405 54.7709C134.136 54.7709 135.503 53.9591 136.22 53.0421H136.327V54.1335C136.327 57.0432 134.844 58.6065 132.454 58.6065C130.505 58.6065 129.296 57.1304 128.797 55.8892L126.022 57.1036C126.822 59.1209 128.939 61.6035 132.454 61.6035C136.194 61.6035 139.35 59.2954 139.35 53.6795V40.0144H136.327V41.2467V41.2467ZM132.678 51.774C130.479 51.774 128.639 49.8439 128.639 47.1869C128.639 44.5053 130.479 42.5484 132.678 42.5484C134.844 42.5484 136.553 44.5053 136.553 47.1869C136.553 49.8439 134.844 51.774 132.678 51.774V51.774ZM174.271 31.9429H166.64V54.308H169.822V45.8338H174.271C177.804 45.8338 181.269 43.1522 181.269 38.8872C181.269 34.6244 177.796 31.9429 174.271 31.9429V31.9429ZM174.354 42.7228H169.822V35.0538H174.354C176.729 35.0538 178.086 37.1226 178.086 38.8872C178.086 40.6183 176.729 42.7228 174.354 42.7228ZM194.022 39.509C191.723 39.509 189.333 40.5735 188.349 42.9331L191.173 44.1743C191.781 42.9331 192.898 42.5305 194.08 42.5305C195.73 42.5305 197.404 43.5705 197.43 45.4066V45.6415C196.854 45.2926 195.621 44.776 194.105 44.776C191.064 44.776 187.966 46.5316 187.966 49.8081C187.966 52.805 190.456 54.7351 193.256 54.7351C195.397 54.7351 196.579 53.722 197.321 52.5434H197.43V54.2722H200.503V45.6929C200.503 41.7276 197.679 39.509 194.022 39.509ZM193.638 51.765C192.597 51.765 191.147 51.2238 191.147 49.8707C191.147 48.1397 192.956 47.4754 194.521 47.4754C195.922 47.4754 196.579 47.7997 197.43 48.2269C197.18 50.2979 195.481 51.765 193.638 51.765V51.765ZM211.699 39.9988L208.041 49.694H207.932L204.152 39.9988H200.72L206.401 53.5475L203.16 61.0868H206.485L215.239 39.9988H211.699V39.9988ZM183.018 54.308H186.208V31.9429H183.018V54.308Z" fill="white"/>
<defs>
<linearGradient id="paint0_linear_1869_1361" x1="37.7777" y1="56.6166" x2="7.78451" y2="28.0179" gradientUnits="userSpaceOnUse">
<stop stop-color="#00A0FF"/>
<stop offset="0.0066" stop-color="#00A1FF"/>
<stop offset="0.2601" stop-color="#00BEFF"/>
<stop offset="0.5122" stop-color="#00D2FF"/>
<stop offset="0.7604" stop-color="#00DFFF"/>
<stop offset="1" stop-color="#00E3FF"/>
</linearGradient>
<linearGradient id="paint1_linear_1869_1361" x1="58.3091" y1="36.4133" x2="17.0287" y2="36.4133" gradientUnits="userSpaceOnUse">
<stop stop-color="#FFE000"/>
<stop offset="0.4087" stop-color="#FFBD00"/>
<stop offset="0.7754" stop-color="#FFA500"/>
<stop offset="1" stop-color="#FF9C00"/>
</linearGradient>
<linearGradient id="paint2_linear_1869_1361" x1="42.9422" y1="32.3077" x2="2.26898" y2="-6.47452" gradientUnits="userSpaceOnUse">
<stop stop-color="#FF3A44"/>
<stop offset="1" stop-color="#C31162"/>
</linearGradient>
<linearGradient id="paint3_linear_1869_1361" x1="13.0362" y1="71.8848" x2="31.1986" y2="54.5669" gradientUnits="userSpaceOnUse">
<stop stop-color="#32A071"/>
<stop offset="0.0685" stop-color="#2DA771"/>
<stop offset="0.4762" stop-color="#15CF74"/>
<stop offset="0.8009" stop-color="#06E775"/>
<stop offset="1" stop-color="#00F076"/>
</linearGradient>
</defs>
</svg>
