<svg width="80" height="80" viewBox="0 0 80 80" fill="none" xmlns="http://www.w3.org/2000/svg">
<path d="M26.0001 6.66699H54.0001C64.6668 6.66699 73.3334 15.3337 73.3334 26.0003V54.0003C73.3334 59.1278 71.2965 64.0454 67.6708 67.6711C64.0451 71.2968 59.1276 73.3337 54.0001 73.3337H26.0001C15.3334 73.3337 6.66675 64.667 6.66675 54.0003V26.0003C6.66675 20.8728 8.70365 15.9553 12.3294 12.3296C15.9551 8.70389 20.8726 6.66699 26.0001 6.66699ZM25.3334 13.3337C22.1508 13.3337 19.0986 14.5979 16.8481 16.8484C14.5977 19.0988 13.3334 22.1511 13.3334 25.3337V54.667C13.3334 61.3003 18.7001 66.667 25.3334 66.667H54.6667C57.8493 66.667 60.9016 65.4027 63.152 63.1523C65.4025 60.9018 66.6668 57.8496 66.6668 54.667V25.3337C66.6668 18.7003 61.3001 13.3337 54.6667 13.3337H25.3334ZM57.5001 18.3337C58.6052 18.3337 59.665 18.7726 60.4464 19.554C61.2278 20.3354 61.6668 21.3953 61.6668 22.5003C61.6668 23.6054 61.2278 24.6652 60.4464 25.4466C59.665 26.228 58.6052 26.667 57.5001 26.667C56.395 26.667 55.3352 26.228 54.5538 25.4466C53.7724 24.6652 53.3334 23.6054 53.3334 22.5003C53.3334 21.3953 53.7724 20.3354 54.5538 19.554C55.3352 18.7726 56.395 18.3337 57.5001 18.3337ZM40.0001 23.3337C44.4204 23.3337 48.6596 25.0896 51.7852 28.2152C54.9108 31.3408 56.6668 35.58 56.6668 40.0003C56.6668 44.4206 54.9108 48.6598 51.7852 51.7854C48.6596 54.911 44.4204 56.667 40.0001 56.667C35.5798 56.667 31.3406 54.911 28.215 51.7854C25.0894 48.6598 23.3334 44.4206 23.3334 40.0003C23.3334 35.58 25.0894 31.3408 28.215 28.2152C31.3406 25.0896 35.5798 23.3337 40.0001 23.3337ZM40.0001 30.0003C37.3479 30.0003 34.8044 31.0539 32.929 32.9293C31.0536 34.8046 30.0001 37.3482 30.0001 40.0003C30.0001 42.6525 31.0536 45.196 32.929 47.0714C34.8044 48.9468 37.3479 50.0003 40.0001 50.0003C42.6522 50.0003 45.1958 48.9468 47.0712 47.0714C48.9465 45.196 50.0001 42.6525 50.0001 40.0003C50.0001 37.3482 48.9465 34.8046 47.0712 32.9293C45.1958 31.0539 42.6522 30.0003 40.0001 30.0003Z" fill="black"/>
</svg>
