<svg width="104" height="100" viewBox="0 0 104 100" fill="none" xmlns="http://www.w3.org/2000/svg">
<path d="M43.4102 84.6667C43.4102 88.4 44.0702 91.92 45.2802 95.3333H43.4102C25.2052 95.3333 10.4102 80.9867 10.4102 63.3333C10.4102 42 43.4102 6 43.4102 6C43.4102 6 67.1152 31.8667 74.3202 52.6667C57.1602 53.84 43.4102 67.7067 43.4102 84.6667Z" fill="#6FD4D4"/>
<g clip-path="url(#clip0_2044_481)">
<path d="M-73.1578 68.5C-73.1578 85.05 -90.5788 68.5 -73.1578 68.5C-73.1578 52.6 -89.5788 69.6 -73.1578 68.5ZM74.7291 74.9998V59.9998H64.2027V74.9998H48.4131V84.9998H64.2027V99.9999H74.7291V84.9998H90.5186V74.9998H74.7291Z" fill="#FDC95F"/>
</g>
<defs>
<clipPath id="clip0_2044_481">
<rect width="40" height="40" fill="white" transform="translate(50 60)"/>
</clipPath>
</defs>
</svg>
