<svg width="1920" height="147" viewBox="0 0 1920 147" fill="none" xmlns="http://www.w3.org/2000/svg">
<g clip-path="url(#clip0_1859_189)">
<path fill-rule="evenodd" clip-rule="evenodd" d="M0 1256L1920 1256L1920 55.1912L1920 52.9897L1898.99 51.2452C1892.65 44.0732 1876.48 33.3348 1862.47 47.7561C1852.8 50.6637 1831.35 53.2223 1822.95 40.1965C1818.11 40.5842 1807.84 41.7085 1805.44 43.1041L1792.43 40.1965C1793.43 36.3199 1791.13 29.7295 1773.92 34.3816C1771.76 36.1261 1763.42 34.8468 1747.41 15.7733C1746.58 13.4474 1743.11 10.1909 1735.9 15.7733C1735.52 15.7733 1734.49 16.4082 1733 17.3147C1726.72 21.1598 1712.46 29.8904 1706.39 15.7733C1698.88 -1.67176 1686.88 5.88781 1680.38 15.7733C1677.37 11.1213 1670.27 1.93346 1665.87 2.39867C1664.53 1.81725 1659.36 2.515 1649.36 9.95824L1640.35 15.7733C1636.85 8.01989 1627.85 -5.50978 1619.84 2.39867C1616.68 6.66307 1610.14 16.1223 1609.34 19.8439C1608.54 23.5655 1606.67 24.1083 1605.84 23.9144C1604.67 22.5576 1602.03 19.8439 1600.83 19.8439C1600.61 19.8439 1600.35 19.8303 1600.08 19.8157C1598.56 19.7341 1596.37 19.6171 1593.83 21.5884C1591.19 23.6362 1586.22 20.7262 1573.46 13.2552L1573.45 13.2512L1573.44 13.245C1571.72 12.2325 1569.84 11.1367 1567.82 9.95824C1566.32 8.40758 1562.21 6.93443 1557.81 13.4474C1556.98 8.40758 1553.11 0.305282 1544.3 8.21373C1539.97 12.4781 1530.2 18.0993 1525.79 6.46922C1517.79 13.2535 1498.38 24.1471 1484.77 13.4474C1474.27 14.0288 1450.96 16.9364 1441.75 23.9144C1424.41 20.0377 1387.02 14.6103 1376.22 23.9144C1378.88 26.4343 1384.42 31.7066 1385.22 32.6371C1385.36 32.7973 1385.57 32.8473 1385.87 32.8186L1393.39 56.874C1393.28 56.6722 1393.23 56.535 1393.23 56.4774C1379.22 65.7818 1362.38 68.1074 1355.71 68.107C1339.3 79.7372 1327.19 72.9529 1323.19 68.107C1314.69 73.0467 1310.28 71.1021 1304.27 68.452C1298.96 66.1106 1292.4 63.2181 1280.67 64.0365C1260.66 57.9889 1244.31 61.9043 1238.65 64.618C1231.44 54.6806 1218.97 55.8254 1213.63 57.64C1181.22 76.7133 1169.44 72.1772 1167.61 67.5249C1161.13 71.2881 1155.08 64.3344 1149.85 58.3291C1146.99 55.0556 1144.39 52.0639 1142.09 51.2434C1136.92 49.3922 1133.96 55.6441 1132.72 58.2739C1132.4 58.9483 1132.19 59.3845 1132.09 59.3845C1131.96 59.3845 1131.39 59.1749 1130.44 58.8232C1127.84 57.865 1122.4 55.8523 1115.08 54.1508C1107.08 52.2901 1088.73 56.8646 1080.56 59.3845C1069.76 55.1976 1038.37 57.64 1024.03 59.3845C1021.8 58.4834 1020.31 57.7132 1019.14 57.1119L1019.14 57.1112C1018.03 56.5396 1017.21 56.1208 1016.35 55.8874C1013.98 55.2476 1011.24 56.0018 1000.97 58.8238L1000.96 58.8245C998.582 59.479 995.796 60.2442 992.517 61.129C975.6 65.6938 971.088 63.8975 967.964 62.6543C965.915 61.8386 964.464 61.2609 960.5 62.8735C952.496 66.1298 937.155 65.0057 930.485 64.0365C928.65 65.5871 924.181 68.8048 920.98 69.27C917.778 69.7352 914.977 68.3009 913.976 67.5255C913.976 69.8515 909.64 73.5344 907.473 75.085C885.388 79.6154 865.927 73.2525 860.446 71.4608C859.596 71.1826 859.082 71.0146 858.947 71.0146C858.736 71.0146 858.613 70.9364 858.481 70.8516C857.989 70.5365 857.358 70.132 851.444 73.3405C845.295 76.6757 841.162 70.6418 839.594 68.3529C839.248 67.8481 839.027 67.5255 838.937 67.5255C826.398 74.8133 821.541 68.2994 818.533 64.2634L818.531 64.2612L818.527 64.2561C817.937 63.4644 817.418 62.7688 816.926 62.2919C815.272 60.6899 810.124 58.9112 804.747 57.0533C800.366 55.5394 795.833 53.9729 792.913 52.4063C789.713 50.6895 785.786 46.861 781.967 43.1374C778.025 39.2934 774.197 35.5612 771.402 34.3797C767 32.5189 743.888 33.992 732.882 34.9613C728.379 28.5646 698.364 31.4721 692.861 33.2166C689.733 34.2082 686.445 32.7579 683.912 31.6413C681.989 30.7932 680.502 30.1376 679.854 30.8907C679.344 31.4842 676.517 31.7412 672.104 32.1424L672.102 32.1424L672.1 32.1428C663.539 32.9212 649.011 34.2426 633.83 39.6132C615.421 46.126 590.808 42.327 580.803 39.6132C566.795 21.0051 550.787 35.5427 545.284 40.7762C540.882 44.9631 535.446 44.4592 533.278 43.6838C530.443 42.327 524.273 39.6132 522.272 39.6132C520.995 39.6132 517.894 37.0379 514.764 34.4388C511.762 31.9457 508.734 29.4308 507.264 29.1462C504.863 28.681 502.595 30.1153 501.761 30.8907C496.314 22.1225 492.621 20.2913 485.685 16.8514C484.341 16.1849 482.875 15.4579 481.251 14.6085C473.247 10.4217 453.236 23.7187 444.231 30.8907C437.295 26.4116 429.766 28.4876 422.557 30.4752L422.555 30.4759C420.406 31.0684 418.285 31.653 416.217 32.0536C409.013 33.4493 404.544 32.6352 403.21 32.0536C396.04 35.7365 377.096 41.7066 358.687 36.1242C340.277 30.5417 325.67 37.2872 320.667 41.3577C307.289 41.3577 292.742 50.1844 284.169 55.3868C281.521 56.9932 279.443 58.2541 278.145 58.8029C272.642 61.129 259.635 59.9659 259.635 58.8029C259.635 57.6399 254.132 46.5912 253.132 46.5912C252.331 46.5912 251.131 48.142 250.631 48.9173C242.626 45.1957 220.281 40.7762 210.11 39.0317L160.584 38.4502C150.979 43.1022 133.903 36.5119 126.566 32.6352L120.063 32.6352L120.063 34.3797C130.622 50.5816 97.3183 43.1556 85.1863 40.4505L85.1845 40.4501C82.9481 39.9513 81.4316 39.6132 81.0423 39.6132C79.0412 39.6132 74.2054 44.6529 72.0377 47.1728L74.0386 48.3357C74.4671 48.5848 74.9874 50.4338 75.5208 52.3295L75.5212 52.331C76.018 54.0966 76.5263 55.9023 76.9824 56.4937L56.7864 59.9659L56.0292 59.9659C51.8604 58.2214 42.6222 55.8953 39.0204 60.5474C35.4185 65.1995 31.85 62.0981 30.5159 59.9659C29.3154 61.3615 9.67168 62.8735 5.21278e-05 63.455L5.18536e-05 69.7288L5.14161e-05 79.7371L0 1256ZM77.5959 56.3882L85.0767 55.1021C84.5726 54.9816 84.0616 54.8583 83.5436 54.7323C81.912 54.7323 78.4921 55.0663 77.5959 56.3882Z" fill="#F2F2F2"/>
<g filter="url(#filter0_d_1859_189)">
<path d="M1898.99 51.2948L1920 53.0392L1920 67.5749L1898.99 66.9935C1893.49 57.6897 1878.98 55.3638 1873.98 55.3638C1868.97 55.3638 1863.47 62.3416 1861.97 63.5046C1860.47 64.6675 1841.46 64.6675 1833.96 63.5046C1826.45 62.3416 1823.95 54.7823 1822.95 54.7823C1821.95 54.7823 1807.44 57.1096 1804.44 57.6911C1802.04 58.1562 1795.44 55.1713 1792.43 53.6207C1790.03 44.7822 1783.76 45.6738 1780.93 47.2244C1762.92 51.2948 1759.42 45.48 1752.41 35.0133C1745.41 24.5466 1741.41 26.2911 1740.91 26.2911C1733.7 31.4081 1722.9 35.4009 1718.4 36.7577C1705.39 38.5022 1705.39 18.1503 1692.88 16.4059C1689.11 15.8801 1682.71 23.1898 1679.87 27.454C1679.37 23.3836 1666.87 10.0096 1660.36 14.6614C1655.16 18.3829 1644.86 24.3528 1640.35 26.8725C1637.85 17.5688 1629.85 11.754 1625.85 11.754C1621.84 11.754 1612.84 21.6392 1612.84 25.1281C1612.84 28.617 1605.84 37.9207 1605.84 36.1762C1605.84 34.7807 1600.83 33.2688 1598.33 32.6873C1598.33 32.1059 1596.73 31.6407 1590.33 34.4318C1584.33 35.5948 1570.32 21.6392 1566.32 21.6392C1563.11 21.6392 1559.98 23.9651 1558.81 25.1281C1553.61 14.894 1549.31 16.5997 1547.81 18.7318C1547.14 20.0886 1543.9 23.6162 1536.3 26.8725C1526.8 30.9429 1528.3 16.4059 1525.79 18.7318C1523.29 21.0577 1511.79 27.454 1502.78 30.9429C1493.78 34.4318 1487.27 26.8725 1475.27 25.1281C1463.26 23.3836 1449.25 35.0133 1440.25 37.9207C1431.25 40.8281 1413.24 32.6873 1402.23 30.9429C1391.22 29.1985 1386.22 33.8503 1385.22 32.6873C1384.42 31.757 1378.88 26.4849 1376.22 23.9651C1387.02 14.6614 1424.41 20.0886 1441.75 23.9651C1450.96 16.9873 1474.27 14.0799 1484.77 13.4984C1498.38 24.1977 1517.79 13.3046 1525.79 6.52067C1530.2 18.1503 1539.97 12.5293 1544.3 8.26512C1553.11 0.356971 1556.98 8.45895 1557.81 13.4985C1562.21 6.98586 1566.32 8.45895 1567.82 10.0096C1584.83 19.8948 1590.83 23.9651 1593.83 21.6392C1596.83 19.3133 1599.33 19.8948 1600.83 19.8948C1602.03 19.8948 1604.67 22.6083 1605.84 23.9651C1606.67 24.159 1608.54 23.6162 1609.34 19.8948C1610.14 16.1733 1616.68 6.7145 1619.84 2.4503C1627.85 -5.45785 1636.85 8.07129 1640.35 15.8244L1649.36 10.0096C1659.36 2.5666 1664.53 1.86882 1665.87 2.45031C1670.27 1.98512 1677.37 11.1725 1680.38 15.8244C1686.88 5.9392 1698.88 -1.62006 1706.39 15.8244C1713.89 33.2688 1733.9 15.8244 1735.9 15.8244C1743.11 10.2422 1746.58 13.4985 1747.41 15.8244C1763.42 34.897 1771.76 36.1762 1773.92 34.4318C1791.13 29.78 1793.43 36.3701 1792.43 40.2466L1805.44 43.154C1807.84 41.7585 1818.11 40.6343 1822.95 40.2466C1831.35 53.2718 1852.8 50.7133 1862.47 47.8059C1876.48 33.3851 1892.65 44.1232 1898.99 51.2948Z" fill="#F2F2F2"/>
<path d="M1398.73 66.9934C1399.23 65.8305 1393.23 57.1082 1393.23 56.5268C1379.22 65.8309 1362.38 68.1562 1355.71 68.1559C1339.3 79.7855 1327.19 73.0016 1323.19 68.1559C1307.18 77.4596 1305.68 62.3411 1280.67 64.0855C1260.66 58.0381 1244.31 61.9534 1238.65 64.667C1231.44 54.7301 1218.97 55.8748 1213.63 57.6892C1181.22 76.7618 1169.44 72.2259 1167.61 67.5738C1157.6 73.388 1148.6 53.6189 1142.09 51.2929C1135.59 48.967 1132.59 59.4337 1132.09 59.4337C1131.59 59.4337 1125.09 56.5263 1115.08 54.2003C1107.08 52.3396 1088.73 56.9139 1080.56 59.4337C1069.76 55.247 1038.37 57.6892 1024.03 59.4337C1012.53 54.7818 1020.53 53.6189 992.517 61.1781C964.502 68.7374 970.505 58.8522 960.5 62.9226C952.496 66.1789 937.155 65.0547 930.485 64.0855C928.65 65.6361 924.181 68.8537 920.98 69.3189C917.778 69.784 914.977 68.3497 913.976 67.5744C913.976 69.9003 909.641 73.5831 907.473 75.1337C881.959 80.367 859.948 71.0633 858.947 71.0633C857.947 71.0633 858.947 69.3189 851.443 73.3892C843.94 77.4596 839.437 67.5744 838.937 67.5744C823.929 76.2966 819.927 65.2485 816.926 62.3411C813.924 59.4337 799.416 55.9448 792.913 52.4559C786.41 48.967 776.905 36.7559 771.402 34.43C767 32.5692 743.887 34.0423 732.882 35.0114C728.379 28.6151 698.364 31.5225 692.861 33.267C687.358 35.0114 681.355 29.1966 679.854 30.9411C678.353 32.6855 656.842 31.5225 633.83 39.6633C615.421 46.1759 590.808 42.3769 580.803 39.6633C566.795 21.0559 550.787 35.5929 545.284 40.8262C540.882 45.0129 535.446 44.509 533.278 43.7337C530.443 42.3769 524.273 39.6633 522.272 39.6633C519.771 39.6633 510.266 29.7781 507.264 29.1966C504.863 28.7314 502.595 30.1658 501.761 30.9411C495.258 20.4744 491.256 19.8929 481.251 14.6596C473.247 10.4729 453.236 23.7695 444.231 30.9411C435.227 25.1262 425.222 30.3596 416.217 32.104C409.013 33.4996 404.544 32.6855 403.21 32.104C396.04 35.7867 377.096 41.7566 358.687 36.1744C340.277 30.5922 325.67 37.3373 320.667 41.4077C303.158 41.4077 283.648 56.5262 278.145 58.8522C272.642 61.1781 259.635 60.0151 259.635 58.8522C259.635 57.6892 254.132 46.641 253.132 46.641C252.332 46.641 251.131 48.1917 250.631 48.967C242.626 45.2455 220.281 40.8262 210.109 39.0818L160.584 38.5003C150.979 43.1522 133.903 36.562 126.566 32.6855L120.063 32.6855L120.063 34.4299C132.569 53.6188 83.5436 39.6633 81.0422 39.6633C79.0413 39.6633 74.2054 44.7028 72.0376 47.2225L74.0387 48.3855C75.0392 48.967 76.5399 58.2707 77.5404 56.5262C78.3408 55.1307 81.8761 54.7818 83.5436 54.7818C126.566 65.2485 121.563 56.5262 121.563 53.6188C121.563 50.7114 120.063 46.641 122.564 46.0596C124.565 45.5944 141.741 51.2929 150.078 54.2003C153.08 53.0373 159.983 51.2929 163.585 53.6188C168.088 56.5262 209.109 51.2929 211.11 53.6188C213.111 55.9448 237.624 58.8522 243.627 60.5966C248.429 61.9922 250.631 63.8917 251.131 64.667C251.298 63.8917 251.931 62.2248 253.132 61.7596C254.633 61.1781 257.134 69.9003 259.635 75.1336C261.636 79.3203 273.142 76.8781 278.645 75.1336C286.649 65.8299 319.166 55.9448 321.668 54.7818C324.169 53.6188 329.172 46.0596 338.176 48.3855C347.181 50.7114 376.696 51.2929 379.698 51.8744C382.699 52.4559 398.708 46.6411 404.711 44.8966C410.714 43.1522 406.212 44.3151 413.716 46.6411C421.219 48.967 426.222 41.9892 431.725 41.4077C436.127 40.9425 441.897 43.5398 444.231 44.8966C459.239 30.9411 464.242 32.6855 475.248 26.8707C486.253 21.0559 501.761 46.0596 501.761 45.4781C501.761 44.8966 507.264 43.1522 510.266 43.7337C513.267 44.3151 521.272 53.0374 522.272 53.6188C523.273 54.2003 523.273 53.6188 529.776 57.6892C534.979 60.9455 539.614 59.046 541.282 57.6892C544.951 54.0065 554.189 46.0596 561.793 43.7337C571.298 40.8262 577.801 50.7114 580.803 53.6188C583.804 56.5262 599.312 55.9448 600.313 55.9448C611.919 60.1314 623.158 57.6892 627.327 55.9448C640.534 51.2929 669.515 46.6411 682.355 44.8966C684.857 50.7114 713.372 41.4077 724.377 44.8966C733.182 47.6877 736.384 49.1608 736.884 49.5485C751.892 45.4781 767.4 47.804 772.402 49.5485C777.405 51.2929 787.91 69.9003 792.913 68.7374C796.915 67.807 811.589 76.1024 818.426 80.3664C826.43 95.4843 833.434 86.7633 834.435 87.3448C835.435 87.9263 838.437 83.2744 839.437 85.6003C840.438 87.9263 845.44 91.4152 849.443 90.2522C853.445 89.0892 857.947 89.0886 858.947 89.0886C866.451 94.9034 891.464 92.5775 897.467 92.5775L906.972 92.5775C910.574 92.5775 913.142 87.1503 913.976 84.4368C916.778 90.4842 925.482 84.2429 929.484 80.3664C934.687 84.0879 943.658 81.917 947.494 80.3664C951.662 79.2034 961.801 77.5753 969.005 80.3664C978.009 83.8553 989.015 78.6219 992.517 76.8775C996.019 75.1331 1011.03 71.6442 1018.03 72.2257C1025.03 72.8071 1023.03 77.459 1025.53 75.7145C1028.04 73.9701 1067.56 73.9701 1074.06 75.7145C1079.26 77.1101 1087.23 75.1331 1090.57 73.9701C1109.78 66.5271 1126.59 72.0318 1132.59 75.7145C1134.19 70.5975 1137.93 68.1553 1139.59 67.5738C1144.6 64.0849 1154.6 78.622 1158.1 83.2738C1161.61 87.9257 1163.61 86.1812 1164.61 85.0183C1165.41 84.0879 1167.94 84.6306 1169.11 85.0183C1178.61 94.322 1203.13 80.3664 1214.63 73.3886C1226.14 66.4108 1237.14 80.3664 1238.65 80.3664C1240.15 80.3664 1250.65 75.1331 1254.15 75.7146C1256.95 76.1797 1273 79.0096 1280.67 80.3664C1282.33 78.8158 1288.87 77.3427 1301.68 83.8553C1314.48 90.3679 1320.69 86.9573 1322.19 84.4379C1328.59 91.8817 1335.2 92.5782 1337.7 91.996C1342.7 94.3219 1355.21 84.4379 1356.71 84.4379C1368.71 87.9268 1398.23 68.1564 1398.73 66.9934Z" fill="#F2F2F2"/>
<path d="M72.0376 62.341C71.0371 60.5966 73.0381 60.5966 73.5383 60.0151L56.0293 60.0151C51.8605 58.2707 42.6223 55.9447 39.0204 60.5966C35.4186 65.2484 31.85 62.1472 30.516 60.0151C29.3153 61.4107 9.67175 62.9225 0.000123361 63.504L0.00012265 79.7855C2.50134 81.5299 30.516 75.1336 31.5165 76.8781C32.3169 78.2736 33.8511 79.0102 34.5181 79.204C36.1855 77.8472 40.321 74.901 43.5227 73.9707C47.5248 72.8077 52.5275 73.9707 55.0287 75.7151C57.53 77.4596 75.5394 75.7151 77.0402 73.9707C78.541 72.2262 75.5394 69.9003 73.5383 64.667C71.5374 59.4336 73.0381 64.0855 72.0376 62.341Z" fill="#F2F2F2"/>
</g>
</g>
<defs>
<filter id="filter0_d_1859_189" x="-14.9999" y="-4.94824" width="1950" height="122.985" filterUnits="userSpaceOnUse" color-interpolation-filters="sRGB">
<feFlood flood-opacity="0" result="BackgroundImageFix"/>
<feColorMatrix in="SourceAlpha" type="matrix" values="0 0 0 0 0 0 0 0 0 0 0 0 0 0 0 0 0 0 127 0" result="hardAlpha"/>
<feOffset dy="10"/>
<feGaussianBlur stdDeviation="7.5"/>
<feComposite in2="hardAlpha" operator="out"/>
<feColorMatrix type="matrix" values="0 0 0 0 0 0 0 0 0 0 0 0 0 0 0 0 0 0 0.1 0"/>
<feBlend mode="normal" in2="BackgroundImageFix" result="effect1_dropShadow_1859_189"/>
<feBlend mode="normal" in="SourceGraphic" in2="effect1_dropShadow_1859_189" result="shape"/>
</filter>
<clipPath id="clip0_1859_189">
<rect width="1920" height="147" fill="white"/>
</clipPath>
</defs>
</svg>
