<svg width="1919" height="147" viewBox="0 0 1919 147" fill="none" xmlns="http://www.w3.org/2000/svg">
<g clip-path="url(#clip0_1860_154)">
<path fill-rule="evenodd" clip-rule="evenodd" d="M1920 -1109L0 -1109L-5.2489e-05 91.8088L-1.74843e-06 94.0103L21.0109 95.7548C27.3476 102.927 43.5227 113.665 57.53 99.2439C67.2017 96.3363 88.6462 93.7777 97.0505 106.803C101.886 106.416 112.158 105.292 114.56 103.896L127.566 106.803C126.566 110.68 128.867 117.271 146.076 112.618C148.244 110.874 156.582 112.153 172.59 131.227C173.424 133.553 176.892 136.809 184.096 131.227C184.478 131.227 185.515 130.592 186.996 129.685C193.277 125.84 207.539 117.11 213.611 131.227C221.115 148.672 233.121 141.112 239.625 131.227C242.626 135.879 249.73 145.067 254.132 144.601C255.466 145.183 260.636 144.485 270.641 137.042L279.646 131.227C283.147 138.98 292.152 152.51 300.156 144.601C303.325 140.337 309.861 130.878 310.662 127.156C311.462 123.434 313.33 122.892 314.164 123.086C315.331 124.442 317.966 127.156 319.166 127.156C319.395 127.156 319.647 127.17 319.921 127.184C321.441 127.266 323.626 127.383 326.17 125.412C328.812 123.364 333.781 126.274 346.538 133.745L346.545 133.749L346.556 133.755C348.284 134.767 350.156 135.863 352.183 137.042C353.684 138.592 357.786 140.066 362.189 133.553C363.022 138.592 366.891 146.695 375.696 138.786C380.031 134.522 389.803 128.901 394.205 140.531C402.209 133.746 421.62 122.853 435.227 133.553C445.732 132.971 469.044 130.064 478.249 123.086C495.591 126.962 532.978 132.39 543.783 123.086C541.115 120.566 535.579 115.293 534.779 114.363C534.641 114.203 534.427 114.153 534.131 114.181L526.61 90.126C526.716 90.3278 526.774 90.465 526.774 90.5226C540.782 81.2182 557.624 78.8926 564.294 78.893C580.702 67.2628 592.809 74.0471 596.811 78.893C605.31 73.9533 609.72 75.8979 615.73 78.548C621.04 80.8894 627.6 83.7819 639.333 82.9635C659.343 89.0111 675.685 85.0957 681.355 82.382C688.559 92.3194 701.032 91.1746 706.368 89.36C738.785 70.2867 750.558 74.8228 752.392 79.4751C758.867 75.7119 764.924 82.6656 770.154 88.6709C773.005 91.9444 775.611 94.9361 777.905 95.7566C783.081 97.6078 786.039 91.3559 787.283 88.7261C787.602 88.0517 787.808 87.6155 787.91 87.6155C788.045 87.6155 788.612 87.8251 789.563 88.1768C792.156 89.135 797.601 91.1477 804.919 92.8492C812.923 94.7099 831.266 90.1354 839.437 87.6155C850.243 91.8024 881.626 89.36 895.967 87.6155C898.195 88.5166 899.692 89.2868 900.86 89.8881L900.862 89.8888C901.972 90.4604 902.786 90.8792 903.65 91.1126C906.018 91.7524 908.763 90.9982 919.034 88.1762L919.037 88.1755C921.418 87.521 924.204 86.7558 927.483 85.871C944.4 81.3062 948.912 83.1025 952.036 84.3457C954.085 85.1614 955.536 85.7391 959.5 84.1265C967.504 80.8702 982.845 81.9943 989.515 82.9635C991.35 81.4129 995.819 78.1952 999.02 77.73C1002.22 77.2648 1005.02 78.6991 1006.02 79.4745C1006.02 77.1485 1010.36 73.4656 1012.53 71.915C1034.61 67.3846 1054.07 73.7475 1059.55 75.5392C1060.4 75.8174 1060.92 75.9854 1061.05 75.9854C1061.26 75.9854 1061.39 76.0636 1061.52 76.1484C1062.01 76.4635 1062.64 76.868 1068.56 73.6595C1074.7 70.3243 1078.84 76.3582 1080.41 78.6471C1080.75 79.1519 1080.97 79.4745 1081.06 79.4745C1093.6 72.1867 1098.46 78.7006 1101.47 82.7366L1101.47 82.7388L1101.47 82.7439C1102.06 83.5356 1102.58 84.2312 1103.07 84.7081C1104.73 86.3101 1109.88 88.0888 1115.25 89.9467C1119.63 91.4606 1124.17 93.0271 1127.09 94.5937C1130.29 96.3105 1134.21 100.139 1138.03 103.863C1141.98 107.707 1145.8 111.439 1148.6 112.62C1153 114.481 1176.11 113.008 1187.12 112.039C1191.62 118.435 1221.64 115.528 1227.14 113.783C1230.27 112.792 1233.56 114.242 1236.09 115.359C1238.01 116.207 1239.5 116.862 1240.15 116.109C1240.66 115.516 1243.48 115.259 1247.9 114.858L1247.9 114.858L1247.9 114.857C1256.46 114.079 1270.99 112.757 1286.17 107.387C1304.58 100.874 1329.19 104.673 1339.2 107.387C1353.2 125.995 1369.21 111.457 1374.72 106.224C1379.12 102.037 1384.55 102.541 1386.72 103.316C1389.56 104.673 1395.73 107.387 1397.73 107.387C1399 107.387 1402.11 109.962 1405.24 112.561C1408.24 115.054 1411.27 117.569 1412.74 117.854C1415.14 118.319 1417.4 116.885 1418.24 116.109C1423.69 124.878 1427.38 126.709 1434.32 130.149C1435.66 130.815 1437.13 131.542 1438.75 132.392C1446.75 136.578 1466.76 123.281 1475.77 116.109C1482.7 120.588 1490.23 118.512 1497.44 116.525L1497.44 116.524C1499.59 115.932 1501.72 115.347 1503.78 114.946C1510.99 113.551 1515.46 114.365 1516.79 114.946C1523.96 111.263 1542.9 105.293 1561.31 110.876C1579.72 116.458 1594.33 109.713 1599.33 105.642C1612.71 105.642 1627.26 96.8156 1635.83 91.6132C1638.48 90.0068 1640.56 88.7459 1641.86 88.1971C1647.36 85.871 1660.36 87.0341 1660.36 88.1971C1660.36 89.3601 1665.87 100.409 1666.87 100.409C1667.67 100.409 1668.87 98.858 1669.37 98.0827C1677.37 101.804 1699.72 106.224 1709.89 107.968L1759.42 108.55C1769.02 103.898 1786.1 110.488 1793.43 114.365L1799.94 114.365L1799.94 112.62C1789.38 96.4184 1822.68 103.844 1834.81 106.55L1834.82 106.55C1837.05 107.049 1838.57 107.387 1838.96 107.387C1840.96 107.387 1845.79 102.347 1847.96 99.8272L1845.96 98.6643C1845.53 98.4152 1845.01 96.5662 1844.48 94.6705L1844.48 94.669C1843.98 92.9034 1843.47 91.0977 1843.02 90.5063L1863.21 87.0341L1863.97 87.0341C1868.14 88.7786 1877.38 91.1047 1880.98 86.4526C1884.58 81.8005 1888.15 84.9019 1889.48 87.0341C1890.68 85.6385 1910.33 84.1265 1920 83.545L1920 77.2712L1920 67.2629L1920 -1109ZM1842.4 90.6118L1834.92 91.8979C1835.43 92.0184 1835.94 92.1417 1836.46 92.2677C1838.09 92.2677 1841.51 91.9337 1842.4 90.6118Z" fill="#F2F2F2"/>
<g filter="url(#filter0_d_1860_154)">
<path d="M21.0109 95.7054L-1.74836e-06 93.9609L-1.11298e-06 79.4252L21.0109 80.0067C26.5138 89.3104 41.0214 91.6363 46.024 91.6363C51.0266 91.6363 56.5294 84.6585 58.0302 83.4956C59.531 82.3326 78.5409 82.3326 86.0448 83.4956C93.5487 84.6585 96.05 92.2178 97.0505 92.2178C98.0511 92.2178 112.559 89.8905 115.56 89.3091C117.961 88.8439 124.565 91.8288 127.566 93.3794C129.968 102.218 136.238 101.326 139.072 99.7757C157.082 95.7054 160.584 101.52 167.587 111.987C174.591 122.454 178.593 120.709 179.093 120.709C186.297 115.592 197.103 111.599 201.605 110.242C214.612 108.498 214.612 128.85 227.118 130.594C230.888 131.12 237.29 123.81 240.125 119.546C240.625 123.616 253.132 136.991 259.635 132.339C264.838 128.617 275.143 122.647 279.646 120.128C282.147 129.431 290.151 135.246 294.153 135.246C298.155 135.246 307.16 125.361 307.16 121.872C307.16 118.383 314.164 109.079 314.164 110.824C314.164 112.219 319.166 113.731 321.668 114.313C321.668 114.894 323.268 115.359 329.672 112.568C335.675 111.405 349.682 125.361 353.684 125.361C356.886 125.361 360.021 123.035 361.188 121.872C366.391 132.106 370.693 130.4 372.194 128.268C372.861 126.912 376.096 123.384 383.7 120.128C393.205 116.057 391.704 130.594 394.205 128.268C396.707 125.942 408.213 119.546 417.217 116.057C426.222 112.568 432.725 120.128 444.732 121.872C456.738 123.616 470.745 111.987 479.75 109.079C488.755 106.172 506.764 114.313 517.77 116.057C528.775 117.802 533.778 113.15 534.779 114.313C535.579 115.243 541.115 120.515 543.783 123.035C532.978 132.339 495.591 126.912 478.249 123.035C469.044 130.013 445.732 132.92 435.227 133.502C421.62 122.802 402.209 133.695 394.205 140.479C389.803 128.85 380.031 134.471 375.696 138.735C366.891 146.643 363.022 138.541 362.189 133.502C357.786 140.014 353.684 138.541 352.183 136.991C335.175 127.105 329.171 123.035 326.17 125.361C323.168 127.687 320.667 127.105 319.166 127.105C317.966 127.105 315.331 124.392 314.164 123.035C313.33 122.841 311.462 123.384 310.662 127.105C309.861 130.827 303.325 140.286 300.156 144.55C292.152 152.458 283.147 138.929 279.646 131.176L270.641 136.991C260.636 144.434 255.466 145.131 254.132 144.55C249.73 145.015 242.626 135.828 239.625 131.176C233.121 141.061 221.115 148.62 213.611 131.176C206.107 113.731 186.097 131.176 184.096 131.176C176.892 136.758 173.424 133.502 172.59 131.176C156.582 112.103 148.244 110.824 146.076 112.568C128.867 117.22 126.566 110.63 127.566 106.754L114.56 103.846C112.158 105.242 101.886 106.366 97.0505 106.754C88.6462 93.7283 67.2017 96.2868 57.53 99.1942C43.5227 113.615 27.3476 102.877 21.0109 95.7054Z" fill="#F2F2F2"/>
<path d="M521.271 80.0067C520.771 81.1697 526.774 89.8919 526.774 90.4734C540.782 81.1693 557.624 78.8439 564.294 78.8442C580.702 67.2146 592.809 73.9985 596.811 78.8442C612.819 69.5405 614.32 84.659 639.333 82.9146C659.343 88.962 675.685 85.0467 681.355 82.3331C688.559 92.27 701.032 91.1253 706.368 89.3109C738.785 70.2383 750.558 74.7743 752.392 79.4263C762.397 73.6121 771.402 93.3813 777.905 95.7072C784.409 98.0331 787.41 87.5664 787.91 87.5664C788.411 87.5664 794.914 90.4739 804.919 92.7998C812.923 94.6605 831.266 90.0862 839.437 87.5664C850.243 91.7531 881.626 89.3109 895.967 87.5664C907.473 92.2183 899.468 93.3813 927.483 85.822C955.498 78.2627 949.495 88.1479 959.5 84.0776C967.504 80.8213 982.845 81.9455 989.515 82.9146C991.35 81.364 995.819 78.1464 999.02 77.6813C1002.22 77.2161 1005.02 78.6504 1006.02 79.4257C1006.02 77.0998 1010.36 73.4171 1012.53 71.8664C1038.04 66.6331 1060.05 75.9368 1061.05 75.9368C1062.05 75.9368 1061.05 77.6813 1068.56 73.6109C1076.06 69.5405 1080.56 79.4257 1081.06 79.4257C1096.07 70.7035 1100.07 81.7516 1103.07 84.659C1106.08 87.5665 1120.58 91.0553 1127.09 94.5442C1133.59 98.0331 1143.1 110.244 1148.6 112.57C1153 114.431 1176.11 112.958 1187.12 111.989C1191.62 118.385 1221.64 115.478 1227.14 113.733C1232.64 111.989 1238.65 117.803 1240.15 116.059C1241.65 114.315 1263.16 115.478 1286.17 107.337C1304.58 100.824 1329.19 104.623 1339.2 107.337C1353.2 125.944 1369.21 111.407 1374.72 106.174C1379.12 101.987 1384.55 102.491 1386.72 103.266C1389.56 104.623 1395.73 107.337 1397.73 107.337C1400.23 107.337 1409.73 117.222 1412.74 117.804C1415.14 118.269 1417.4 116.834 1418.24 116.059C1424.74 126.526 1428.74 127.107 1438.75 132.341C1446.75 136.527 1466.76 123.231 1475.77 116.059C1484.77 121.874 1494.78 116.641 1503.78 114.896C1510.99 113.501 1515.46 114.315 1516.79 114.896C1523.96 111.213 1542.9 105.244 1561.31 110.826C1579.72 116.408 1594.33 109.663 1599.33 105.592C1616.84 105.592 1636.35 90.4739 1641.86 88.148C1647.36 85.822 1660.36 86.985 1660.36 88.148C1660.36 89.3109 1665.87 100.359 1666.87 100.359C1667.67 100.359 1668.87 98.8085 1669.37 98.0331C1677.37 101.755 1699.72 106.174 1709.89 107.918L1759.42 108.5C1769.02 103.848 1786.1 110.438 1793.43 114.315L1799.94 114.315L1799.94 112.57C1787.43 93.3813 1836.46 107.337 1838.96 107.337C1840.96 107.337 1845.79 102.297 1847.96 99.7776L1845.96 98.6146C1844.96 98.0332 1843.46 88.7295 1842.46 90.4739C1841.66 91.8695 1838.12 92.2183 1836.46 92.2183C1793.43 81.7517 1798.44 90.4739 1798.44 93.3813C1798.44 96.2887 1799.94 100.359 1797.44 100.941C1795.44 101.406 1778.26 95.7072 1769.92 92.7998C1766.92 93.9628 1760.02 95.7072 1756.41 93.3813C1751.91 90.4739 1710.89 95.7072 1708.89 93.3813C1706.89 91.0554 1682.38 88.148 1676.37 86.4035C1671.57 85.008 1669.37 83.1085 1668.87 82.3331C1668.7 83.1085 1668.07 84.7754 1666.87 85.2406C1665.37 85.822 1662.87 77.0998 1660.36 71.8665C1658.36 67.6798 1646.86 70.122 1641.35 71.8665C1633.35 81.1702 1600.83 91.0554 1598.33 92.2183C1595.83 93.3813 1590.83 100.941 1581.82 98.6146C1572.82 96.2887 1543.3 95.7072 1540.3 95.1257C1537.3 94.5443 1521.29 100.359 1515.29 102.104C1509.29 103.848 1513.79 102.685 1506.28 100.359C1498.78 98.0331 1493.78 105.011 1488.28 105.592C1483.87 106.058 1478.1 103.46 1475.77 102.104C1460.76 116.059 1455.76 114.315 1444.75 120.129C1433.75 125.944 1418.24 100.941 1418.24 101.522C1418.24 102.104 1412.74 103.848 1409.73 103.266C1406.73 102.685 1398.73 93.9628 1397.73 93.3813C1396.73 92.7998 1396.73 93.3813 1390.22 89.3109C1385.02 86.0546 1380.39 87.9541 1378.72 89.3109C1375.05 92.9936 1365.81 100.941 1358.21 103.266C1348.7 106.174 1342.2 96.2887 1339.2 93.3813C1336.2 90.4739 1320.69 91.0554 1319.69 91.0554C1308.08 86.8687 1296.84 89.3109 1292.67 91.0554C1279.47 95.7072 1250.48 100.359 1237.64 102.103C1235.14 96.2887 1206.63 105.592 1195.62 102.103C1186.82 99.3124 1183.62 97.8393 1183.12 97.4516C1168.11 101.522 1152.6 99.1961 1147.6 97.4516C1142.6 95.7072 1132.09 77.0998 1127.09 78.2628C1123.08 79.1931 1108.41 70.8977 1101.57 66.6337C1093.57 51.5158 1086.57 60.2368 1085.57 59.6553C1084.56 59.0739 1081.56 63.7257 1080.56 61.3998C1079.56 59.0739 1074.56 55.585 1070.56 56.7479C1066.56 57.9109 1062.05 57.9115 1061.05 57.9115C1053.55 52.0967 1028.54 54.4226 1022.53 54.4226L1013.03 54.4226C1009.43 54.4226 1006.86 59.8498 1006.02 62.5634C1003.22 56.516 994.518 62.7572 990.516 66.6337C985.313 62.9122 976.342 65.0831 972.506 66.6337C968.338 67.7967 958.199 69.4248 950.995 66.6337C941.991 63.1448 930.985 68.3782 927.483 70.1226C923.981 71.8671 908.973 75.356 901.97 74.7745C894.966 74.193 896.967 69.5411 894.466 71.2856C891.965 73.03 852.444 73.03 845.941 71.2856C840.738 69.89 832.767 71.8671 829.432 73.03C810.222 80.473 793.413 74.9683 787.41 71.2856C785.809 76.4026 782.074 78.8448 780.406 79.4263C775.404 82.9152 765.399 68.3782 761.897 63.7263C758.395 59.0745 756.394 60.8189 755.393 61.9819C754.593 62.9122 752.058 62.3695 750.891 61.9819C741.386 52.6782 716.873 66.6337 705.367 73.6115C693.861 80.5893 682.856 66.6337 681.355 66.6337C679.854 66.6337 669.349 71.8671 665.847 71.2856C663.045 70.8204 647.004 67.9905 639.333 66.6337C637.665 68.1843 631.129 69.6574 618.322 63.1448C605.515 56.6322 599.312 60.0429 597.811 62.5622C591.408 55.1184 584.805 54.4219 582.303 55.0041C577.301 52.6782 564.794 62.5622 563.293 62.5622C551.287 59.0734 521.772 78.8437 521.271 80.0067Z" fill="#F2F2F2"/>
<path d="M1847.96 84.6591C1848.96 86.4035 1846.96 86.4035 1846.46 86.985L1863.97 86.985C1868.14 88.7295 1877.38 91.0554 1880.98 86.4035C1884.58 81.7517 1888.15 84.8529 1889.48 86.985C1890.68 85.5895 1910.33 84.0776 1920 83.4961L1920 67.2146C1917.5 65.4702 1889.48 71.8665 1888.48 70.122C1887.68 68.7265 1886.15 67.9899 1885.48 67.7961C1883.81 69.1529 1879.68 72.0991 1876.48 73.0295C1872.48 74.1924 1867.47 73.0295 1864.97 71.285C1862.47 69.5406 1844.46 71.285 1842.96 73.0294C1841.46 74.7739 1844.46 77.0998 1846.46 82.3332C1848.46 87.5665 1846.96 82.9146 1847.96 84.6591Z" fill="#F2F2F2"/>
</g>
</g>
<defs>
<filter id="filter0_d_1860_154" x="-15" y="48.9631" width="1950" height="122.985" filterUnits="userSpaceOnUse" color-interpolation-filters="sRGB">
<feFlood flood-opacity="0" result="BackgroundImageFix"/>
<feColorMatrix in="SourceAlpha" type="matrix" values="0 0 0 0 0 0 0 0 0 0 0 0 0 0 0 0 0 0 127 0" result="hardAlpha"/>
<feOffset dy="10"/>
<feGaussianBlur stdDeviation="7.5"/>
<feComposite in2="hardAlpha" operator="out"/>
<feColorMatrix type="matrix" values="0 0 0 0 0 0 0 0 0 0 0 0 0 0 0 0 0 0 0.1 0"/>
<feBlend mode="normal" in2="BackgroundImageFix" result="effect1_dropShadow_1860_154"/>
<feBlend mode="normal" in="SourceGraphic" in2="effect1_dropShadow_1860_154" result="shape"/>
</filter>
<clipPath id="clip0_1860_154">
<rect width="1920" height="147" fill="white" transform="matrix(-1 0 0 -1 1920 147)"/>
</clipPath>
</defs>
</svg>
